<?xml version="1.0" encoding="UTF-8"?>
<svg xmlns="http://www.w3.org/2000/svg" xmlns:xlink="http://www.w3.org/1999/xlink" viewBox="0 0 48 48" width="48px" height="48px">
<g id="surface118687777">
<path style=" stroke:none;fill-rule:nonzero;fill:rgb(100%,0.392157%,30.980393%);fill-opacity:1;" d="M 10.5 6 C 8.03125 6 6 8.03125 6 10.5 L 6 37.5 C 6 39.96875 8.03125 42 10.5 42 L 37.5 42 C 39.96875 42 42 39.96875 42 37.5 L 42 10.5 C 42 8.03125 39.96875 6 37.5 6 Z M 10.5 9 L 37.5 9 C 38.347656 9 39 9.652344 39 10.5 L 39 37.5 C 39 38.347656 38.347656 39 37.5 39 L 10.5 39 C 9.652344 39 9 38.347656 9 37.5 L 9 10.5 C 9 9.652344 9.652344 9 10.5 9 Z M 24 10.957031 C 21.503906 10.785156 18.878906 12.152344 17.605469 14.410156 C 17.570312 14.472656 17.542969 14.539062 17.507812 14.601562 C 15.65625 14.742188 13.789062 15.789062 12.703125 17.476562 C 11.304688 19.554688 11.179688 22.511719 12.496094 24.742188 C 12.53125 24.804688 12.578125 24.859375 12.613281 24.921875 C 11.8125 26.597656 11.785156 28.738281 12.703125 30.519531 C 13.804688 32.769531 16.300781 34.355469 18.890625 34.332031 C 18.964844 34.332031 19.03125 34.320312 19.101562 34.320312 C 20.152344 35.855469 21.992188 36.949219 23.996094 37.039062 C 26.496094 37.214844 29.121094 35.847656 30.394531 33.585938 C 30.429688 33.527344 30.457031 33.460938 30.488281 33.398438 C 32.34375 33.257812 34.210938 32.210938 35.292969 30.519531 C 36.695312 28.445312 36.820312 25.488281 35.5 23.253906 C 35.46875 23.195312 35.421875 23.140625 35.382812 23.078125 C 36.1875 21.402344 36.214844 19.261719 35.292969 17.480469 C 34.195312 15.230469 31.699219 13.644531 29.105469 13.667969 C 29.035156 13.667969 28.96875 13.679688 28.894531 13.679688 C 27.847656 12.144531 26.007812 11.050781 24 10.960938 Z M 24.613281 13.445312 C 25.375 13.46875 26.148438 13.667969 26.871094 14.03125 C 26.367188 14.203125 25.878906 14.410156 25.425781 14.679688 C 24.347656 15.363281 23.421875 16.316406 22.871094 17.453125 C 22.054688 19 21.984375 20.828125 22.511719 22.378906 C 22.390625 22.492188 22.28125 22.621094 22.183594 22.757812 C 21.207031 22.167969 20.460938 21.34375 20.027344 20.394531 C 19.339844 18.945312 19.4375 17.238281 20.191406 15.910156 C 20.933594 14.550781 22.378906 13.628906 24 13.464844 C 24.203125 13.445312 24.40625 13.4375 24.613281 13.445312 Z M 16.804688 16.527344 C 16.699219 17.050781 16.636719 17.578125 16.640625 18.105469 C 16.695312 19.378906 17.0625 20.660156 17.765625 21.703125 C 18.695312 23.1875 20.246094 24.160156 21.851562 24.476562 C 21.890625 24.640625 21.945312 24.796875 22.015625 24.949219 C 21.019531 25.5 19.929688 25.734375 18.890625 25.632812 C 17.292969 25.503906 15.863281 24.566406 15.089844 23.25 C 14.285156 21.929688 14.207031 20.21875 14.875 18.730469 C 15.273438 17.863281 15.941406 17.097656 16.804688 16.53125 Z M 29.105469 16.65625 C 30.65625 16.621094 32.175781 17.410156 33.125 18.730469 C 33.683594 19.511719 34.007812 20.476562 34.066406 21.503906 C 33.671875 21.152344 33.242188 20.832031 32.785156 20.574219 C 31.652344 19.984375 30.363281 19.660156 29.101562 19.746094 C 27.355469 19.8125 25.738281 20.671875 24.660156 21.902344 C 24.5 21.855469 24.335938 21.824219 24.171875 21.808594 C 24.195312 20.667969 24.53125 19.609375 25.136719 18.761719 C 26.050781 17.441406 27.578125 16.671875 29.105469 16.65625 Z M 28.496094 22.34375 C 28.703125 22.339844 28.90625 22.347656 29.105469 22.363281 C 30.707031 22.496094 32.136719 23.433594 32.910156 24.746094 C 33.714844 26.070312 33.792969 27.78125 33.125 29.265625 C 32.726562 30.136719 32.058594 30.902344 31.195312 31.46875 C 31.300781 30.949219 31.363281 30.421875 31.359375 29.894531 C 31.304688 28.621094 30.9375 27.339844 30.230469 26.292969 C 29.304688 24.8125 27.753906 23.839844 26.144531 23.523438 C 26.109375 23.359375 26.054688 23.203125 25.980469 23.050781 C 26.789062 22.605469 27.648438 22.367188 28.496094 22.34375 Z M 25.8125 25.242188 C 26.792969 25.832031 27.539062 26.65625 27.96875 27.601562 C 28.660156 29.054688 28.5625 30.761719 27.808594 32.089844 C 27.066406 33.449219 25.621094 34.371094 24 34.535156 C 23.046875 34.625 22.050781 34.429688 21.125 33.964844 C 21.632812 33.796875 22.121094 33.589844 22.574219 33.320312 C 23.652344 32.636719 24.578125 31.683594 25.128906 30.546875 C 25.945312 29 26.015625 27.171875 25.484375 25.617188 C 25.609375 25.507812 25.71875 25.378906 25.8125 25.242188 Z M 23.339844 26.09375 C 23.5 26.144531 23.664062 26.175781 23.828125 26.1875 C 23.804688 27.332031 23.46875 28.390625 22.859375 29.238281 C 21.949219 30.558594 20.421875 31.328125 18.894531 31.339844 C 17.34375 31.378906 15.824219 30.589844 14.871094 29.265625 C 14.316406 28.488281 13.992188 27.523438 13.929688 26.492188 C 14.328125 26.847656 14.757812 27.167969 15.214844 27.425781 C 16.347656 28.015625 17.636719 28.339844 18.894531 28.25 C 20.644531 28.1875 22.261719 27.328125 23.339844 26.09375 Z M 23.339844 26.09375 "/>
</g>
</svg>
